<svg fill="none" height="26" viewBox="0 0 26 26" width="26" xmlns="http://www.w3.org/2000/svg"><path d="m13 0c-3.53167 0-3.97258.01625-5.35925.078-1.3845.065-2.327.28275-3.15575.6045-.85475.3315-1.58058.77675-2.30317 1.49933-.72258.72259-1.16891 1.44734-1.49933 2.30317-.32175.82875-.540583 1.77125-.6045 3.15575-.065 1.38667-.078 1.82758-.078 5.35925 0 3.5317.01625 3.9726.078 5.3593.065 1.3834.28275 2.327.6045 3.1557.3315.8537.77675 1.5806 1.49933 2.3032.72259.7215 1.44734 1.1689 2.30317 1.4993.82983.3207 1.77233.5406 3.15575.6045 1.38667.065 1.82758.078 5.35925.078 3.5317 0 3.9726-.0162 5.3593-.078 1.3834-.065 2.327-.2838 3.1557-.6045.8537-.3315 1.5806-.7778 2.3032-1.4993.7215-.7226 1.1689-1.4463 1.4993-2.3032.3207-.8287.5406-1.7723.6045-3.1557.065-1.3867.078-1.8276.078-5.3593 0-3.53167-.0162-3.97258-.078-5.35925-.065-1.38342-.2838-2.32808-.6045-3.15575-.3315-.85475-.7778-1.58058-1.4993-2.30317-.7226-.72258-1.4463-1.16891-2.3032-1.49933-.8287-.32175-1.7723-.540583-3.1557-.6045-1.3867-.065-1.8276-.078-5.3593-.078zm0 2.34c3.4699 0 3.8838.01733 5.2542.07692 1.2675.05958 1.9554.26975 2.4126.44958.6088.23508 1.04.51675 1.4971.97067.4539.455.7356.88725.9707 1.49608.1777.45717.39 1.14508.4474 2.41258.0618 1.3715.0758 1.78317.0758 5.25417s-.0162 3.8838-.0801 5.2542c-.0661 1.2675-.2774 1.9554-.4561 2.4126-.2427.6088-.5189 1.04-.9739 1.4971-.4539.4539-.8927.7356-1.495.9707-.455.1777-1.1538.39-2.4213.4474-1.3801.0618-1.7864.0758-5.2639.0758-3.47858 0-3.88483-.0162-5.26392-.0801-1.26858-.0661-1.96733-.2774-2.42233-.4561-.61642-.2427-1.04-.5189-1.49392-.9739-.45608-.4539-.7475-.8927-.975-1.495-.17875-.455-.38891-1.1538-.455-2.4213-.04875-1.365-.06608-1.7864-.06608-5.2476 0-3.46238.01733-3.88488.06608-5.26613.06609-1.2675.27625-1.96517.455-2.42017.2275-.6175.51892-1.04.975-1.49608.45392-.45392.8775-.74642 1.49392-.97284.455-.17983 1.13858-.39108 2.40608-.45608 1.38125-.04875 1.7875-.065 5.26397-.065zm0 3.9845c-3.68875 0-6.6755 2.99-6.6755 6.6755 0 3.6888 2.99 6.6755 6.6755 6.6755 3.6888 0 6.6755-2.99 6.6755-6.6755 0-3.68875-2.99-6.6755-6.6755-6.6755zm0 11.0088c-2.3942 0-4.33333-1.9391-4.33333-4.3333s1.93913-4.33333 4.33333-4.33333 4.3333 1.93913 4.3333 4.33333-1.9391 4.3333-4.3333 4.3333zm8.4998-11.27205c0 .86125-.6998 1.56-1.56 1.56-.8612 0-1.56-.69983-1.56-1.56s.6999-1.55892 1.56-1.55892c.8591-.00108 1.56.69875 1.56 1.55892z" fill="#9e5e00"/></svg>